/* XPM */
static char *ee6a551e45774a19ba8924fd4c259993[] = {
/* columns rows colors chars-per-pixel */
"64 64 12 1 ",
"  c #000100",
". c #4E7A36",
"X c #4F7A36",
"o c #B71C1C",
"O c #C62928",
"+ c #D32E2F",
"@ c #E53935",
"# c #F44336",
"$ c #599137",
"% c #65AB3E",
"& c #64AA3F",
"* c white",
/* pixels */
".....&&&&&&&&&$$$$&&&&&&&&&&&&&&&&&&&&&&&$$$$$....$$$$$&&&&&&&&&",
".....&&&&&&&&&$$$$&&&&&&&&&&&&&&&&&&&&&&&$$$$$....$$$$$&&&&&&&&&",
".....&&&&&&&&&$$$$&&&&&&&&&&&&&&&&&&&&&&&$$$$$....$$$$$&&&&&&&&&",
".....&&&&&&&&&$$$$&&&&&&&&&&&&&&&&&&&&&&&$$$$$....$$$$$&&&&&&&&&",
".....&&&&&&&&&$$$$&&&&&&&&&&&&&&&&&&&&&&&$$$$$....$$$$$&&&&&&&&&",
"&&&&&&&&&&&&&&$$$$.....$$$$&&&&&&&&&&&&&&&&&&&&&&&&&&&&&&&&&&&&&",
"&&&&&&&&&&&&&&$$$$.....$$$$&&&&&&&&&&&&&&&&&&&&&&&&&&&&&&&&&&&&&",
"&&&&&&&&&&&&&&$$$$.....$$$$&&&&&&&&&&&&&&&&&&&&&&&&&&&&&&&&&&&&&",
"&&&&&&&&&&&&&&$$$$.....$$$$&&&&&&&&&&&&&&&&&&&&&&&&&&&&&&&&&&&&&",
"&&&&&$$$$&&&&&&&&&&&&&&$$$$&&&&&&&&&&$$$$&&&&&&&&&&&&&&&&&&&&&&&",
"&&&&&$$$$&&&&&&&&&&&&&&$$$$&&&&&&&&&&$$$$&&&&&&&&&&&&&&&&&&&&&&&",
"&&&&&$$$$&&&&&&&&&&&&&&$$$$&&&&&&&&&&$$$$&&&&&&&&&&&&&&&&&&&&&&&",
"&&&&&$$$$&&&&&&&&&&&&&&$$$$&&&&&&&&&&$$$$&&&&&&&&&&&&&&&&&&&&&&&",
"&&&&&$$$$&&&&&&&&&&&&&&$$$$&&&&&&&&&&$$$$&&&&&&&&&&&&&&&&&&&&&&&",
"&&&&&$$$$&&&&&....&&&&&&&&&&&&&&&&&&&$$$$&&&&&....&&&&&$$$$&&&&&",
"&&&&&$$$$&&&&&....&&&&&&&&&&&&&&&&&&&$$$$&&&&&....&&&&&$$$$&&&&&",
"&&&&&$$$$&&&&&....&&&&&&&&&&&&&&&&&&&$$$$&&&&&....&&&&&$$$$&&&&&",
"&&&&&$$$$&&&&&...          &&&&&           &&&....&&&&&$$$$&&&&&",
"&&&&&&&&&&&&&&...          &&&&&           &&&....&&&&&$$$$&&&&&",
"&&&&&&&&&&&&&&...          &&&&&           &&&....&&&&&$$$$&&&&&",
"&&&&&&&&&&&&&&...          &&&&&           &&&....&&&&&$$$$&&&&&",
"&&&&&&&&&&&&&&...          &&&&&           &&&....&&&&&$$$$&&&&&",
"&&&&&&&&&&&&&&...          &&&&&           &&&....&&&&&$$$$&&&&&",
"$$$$$&&&&&&      OO+++++@@@     ###########     &&&&&&&&&&&&&&&&",
"$$$$$&&&&&&      OO+++++@@@     ###########     &&&&&&&&&&&&&&&&",
"$$$$$&&&&&&      OOOOO++@@@     ###*****###     &&&&&&&&&&&&&&&&",
"$$$$$&&&&&&      OOOOO++@@@     ###*****###     &&&&&&&&&&&&&&&&",
"$$$$$&&&&&&      OOOOO++@@@     ###*****###     &&&&&&&&&&&&&&&&",
"$$$$$&&&&&&      OOOOO++@@@@@@@@###*****###     &&&&&&&&&&&&&&&&",
"$$$$$&&&&&&      OOOOO++@@@@@@@@###*****###     &&&&&&&&&&&&&&&&",
"$$$$$&&&&&&      OOOOO++@@@@@@@@###*****###     &&&&&&&&&&&&&&&&",
"$$$$$&&&&&&      OOOOOOO@@@@@@@@###########     &&&&&&&&&&&&&&&&",
"&&&&&&&&&&&      OOOOOOO@@@@@@@@###########     $$&&&&&&&&&&&&&&",
"&&&&&&&&&&&      ooOOOOO+++@@@@@@@@@@@@@###     $$&&&&&&&&&&&&&&",
"&&&&&&&&&&&      ooOOOOO+++@@@@@@@@@@@@@###     $$&&&&&&&&&&&&&&",
"&&&&&&&&&&&      ooOOOOO+++@@@@@@@@@@@@@###     $$&&&&&&&&&&&&&&",
"&&&&&&&&&&&      oooooOOOOOOOO@@@@@@@@##@@@     $$&&&&&&&&&&&&&&",
"&&&&&&&&&&&      oooooOOOOOOOO@@@@@@@@##@@@     $$&&&&&&&&&$$$$$",
"&&&&&&&&&&&      oooooOOOOOOOO@@@@@@@@##@@@     $$&&&&&&&&&$$$$$",
"&&&&&&&&&&&&&&&&&     ooOOOOOOOO@@@@@@     &&&$$$$&&&&&&&&&$$$$$",
"&&&&&&&&&&&&&&&&&     ooOOOOOOOO@@@@@@     &&&$$$$&&&&&&&&&$$$$$",
"&&&&&....&&&&&&&&     ooOOOOOOOO@@@@@@     &&&&&&&&&&&&&&&&$$$$$",
"&&&&&....&&&&&&&&     ooOOOOOOOOOOO+++     &&&&&&&&&&&&&&&&$$$$$",
"&&&&&....&&&&&&&&     ooOOOOOOOOOOO+++     &&&&&&&&&&&&&&&&$$$$$",
"&&&&&....&&&&&&&&&$$$$     oooOO      &&&&&&&&&&&&&&&&&&&&&$$$$$",
"&&&&&....&&&&&&&&&$$$$     oooOO      &&&&&&&&&&&&&&&&&&&&&$$$$$",
"&&&&&....&&&&&&&&&$$$$     oooOO      $$$&&&&&&&&&.....&&&&&&&&&",
"&&&&&....&&&&&&&&&$$$$     oooOO      $$$&&&&&&&&&.....&&&&&&&&&",
"&&&&&....&&&&&&&&&$$$$     oooOO      $$$&&&&&&&&&.....&&&&&&&&&",
"&&&&&....&&&&&&&&&$$$$     oooOO      $$$&&&&&&&&&.....&&&&&&&&&",
"&&&&&&&&&$$$$$&&&&&&&&&&&&&     &&&&&$$$$&&&&&&&&&.....&&&&&&&&&",
"&&&&&&&&&$$$$$&&&&&&&&&&&&&     &&&&&$$$$&&&&&&&&&.....&&&&&&&&&",
"&&&&&&&&&$$$$$&&&&&&&&&&&&&     &&&&&$$$$&&&&&&&&&.....&&&&&&&&&",
"&&&&&&&&&$$$$$&&&&&&&&&&&&&     &&&&&$$$$&&&&&&&&&.....&&&&&&&&&",
"&&&&&&&&&$$$$$&&&&&&&&&&&&&     &&&&&$$$$&&&&&&&&&.....&&&&&&&&&",
"&&&&&&&&&$$$$$&&&&&&&&&&&&&.....&&&&&&&&&&&&&&&&&&&&&&&&&&&$$$$$",
"&&&&&&&&&$$$$$&&&&&&&&&&&&&.....&&&&&&&&&&&&&&&&&&&&&&&&&&&$$$$$",
"&&&&&&&&&$$$$$&&&&&&&&&&&&&.....&&&&&&&&&&&&&&&&&&&&&&&&&&&$$$$$",
"&&&&&&&&&$$$$$&&&&&&&&&&&&&.....&&&&&&&&&&&&&&&&&&&&&&&&&&&$$$$$",
".....&&&&&&&&&&&&&&&&&&&&&&.....&&&&&&&&&$$$$$....$$$$$&&&&$$$$$",
".....&&&&&&&&&&&&&&&&&&&&&&.....&&&&&&&&&$$$$$....$$$$$&&&&$$$$$",
".....&&&&&&&&&&&&&&&&&&&&&&.....&&&&&&&&&$$$$$....$$$$$&&&&$$$$$",
".....&&&&&&&&&&&&&&&&&&&&&&.....&&&&&&&&&$$$$$....$$$$$&&&&$$$$$",
".....&&&&&&&&&&&&&&&&&&&&&&.....&&&&&&&&&$$$$$....$$$$$&&&&$$$$$"
};
