/* XPM */
static char *_4e87cb9fc404acebabc2873917d2711[] = {
/* columns rows colors chars-per-pixel */
"64 64 10 1 ",
"  c #010000",
". c #262223",
"X c #461E0F",
"o c #602816",
"O c #602F1A",
"+ c #6B2F1E",
"@ c #4F7B36",
"# c #804B36",
"$ c #599036",
"% c #65AB3F",
/* pixels */
"@@@@@%%%%%%%%%$$$$%%%%%%%%....###########$$$$$@@@@$$$$$%%%%%%%%%",
"@@@@@%%%%%%%%%$$$$%%%%%%%%....###########$$$$$@@@@$$$$$%%%%%%%%%",
"@@@@@%%%%%%%%%$$$$%%%%%%%%....#######################$$%%%%%%%%%",
"..............................##############################oooo",
"..............................##############################oooo",
"..............................##############################oooo",
"..............................##############################oooo",
"........                  ....########OOOOOOO###############oooo",
"........                  ....########OOOXXXXOOOOOOOO#######oooo",
"........                  ....########OOOXXXXOOOOOOOO#######oooo",
"........                  ....########OOOXXXXOOOOXXXX+++####oooo",
"........                  ....########OOOXXXXOOOOXXXX+++####oooo",
"........                  ....########OOOXXXXOOOOXXXX+++####oooo",
"........                  ....########OOOXXXXOOOOXXXX+++++++oooo",
"........                  ....########OOOXXXXOOOOXXXX+++++++oooo",
"........                  ....########OOOXXXXOOOOXXXX+++oooooooo",
"........                  ....########OOOXXXXOOOOXXXX+++oooooooo",
"........                  ....########OOOXXXXOOOOXXXX+++oooooooo",
"........                  ....########OOOXXXXOOOOXXXX+++oooooooo",
"........                  ....########OOOXXXXOOOOXXXX+++oooooooo",
"........                  ....########OOOXXXXOOOOXXXX+++####oooo",
"........                  ....########OOOXXXXOOOOXXXX+++####oooo",
"........                  ....########OOOXXXXOOOOXXXX+++####oooo",
"........                  ....########OOOXXXXOOOOXXXX+++####oooo",
"........                  ....########OOOXXXXOOOOXXXX+++####oooo",
"........                  ....###########++++++++XXXX+++####oooo",
"........                  ....###########++++++++XXXX+++####oooo",
"........                  ....###################+++++++####oooo",
"........                  ....###################+++++++####oooo",
"........                  ....##############################oooo",
"........                  ....##############################oooo",
"........                  ....##############################oooo",
"........                  ....##############################oooo",
"........                  ....##############################oooo",
"........                  ....##############################oooo",
"........                  ....###################OOOO+++####oooo",
"........                  ....###################OOOO+++####oooo",
"........                  ....###########OOOOOOOOXXXX+++####oooo",
"........                  ....###########OOOOOOOOXXXX+++####oooo",
"........                  ....########OOOXXXXOOOOXXXX+++####oooo",
"........                  ....########OOOXXXXOOOOXXXX+++####oooo",
"........                  ....########OOOXXXXOOOOXXXX+++####oooo",
"........                  ....########OOOXXXXOOOOXXXX+++####oooo",
"........                  ....########OOOXXXXOOOOXXXX+++####oooo",
"........                  ....########OOOXXXXOOOOXXXX+++++++oooo",
"........                  ....########OOOXXXXOOOOXXXX+++oooooooo",
"........                  ....########OOOXXXXOOOOXXXX+++oooooooo",
"........                  ....########OOOXXXXOOOOXXXX+++oooooooo",
"........                  ....########OOOXXXXOOOOXXXX+++oooooooo",
"........                  ....########OOOXXXXOOOOXXXX+++oooooooo",
"........                  ....########OOOXXXXOOOOXXXX+++oooooooo",
"........                  ....########OOOXXXXOOOOXXXX+++####oooo",
"........                  ....########OOOXXXXOOOOXXXX+++####oooo",
"........                  ....########OOOXXXXOOOOXXXX+++####oooo",
"........                  ....########OOOXXXX++++++++#######oooo",
"........                  ....########OOOXXXX++++++++#######oooo",
"........                  ....########OOO++++###############oooo",
"..............................##############################oooo",
"..............................##############################oooo",
"..............................##############################oooo",
"..............................##############################oooo",
"@@@@@%%%%%%%%%%%%%%%%%%%%%....#######################$$%%%%$$$$$",
"@@@@@%%%%%%%%%%%%%%%%%%%%%....###########$$$$$@@@@$$$$$%%%%$$$$$",
"@@@@@%%%%%%%%%%%%%%%%%%%%%....###########$$$$$@@@@$$$$$%%%%$$$$$"
};
