/* XPM */
static char *d64fecb279374b80ecc427d01779fb67Ab0S8AOiQq4RUCnD_1[] = {
/* columns rows colors chars-per-pixel */
"64 64 11 1 ",
"  c #5C2C28",
". c #5D2C28",
"X c #5E2D29",
"o c #36464E",
"O c #8A4836",
"+ c #8B4836",
"@ c #8C4936",
"# c #BE6E4A",
"$ c #BF6F4A",
"% c #E69C68",
"& c #E69C69",
/* pixels */
"oooooooooooooooooooooooooooooooooooooooooooooooooooooooooooooooo",
"oooooooooooooooooooooooooooooooooooooooooooooooooooooooooooooooo",
"ooooOOOOOO@OOOOO@OOOOOOOOOOOOOOOOOOOOOOOOOOOOO@OOOOOOOOOOOOOoooo",
"ooooOOO@OOOOOOOOOOOOOOOOOOOOOOOOOOOOOOOOOOOOOOOOOOOOOOOOOOOOoooo",
"ooooOOOOOOOOOOO@OOOOOOOOOOOOOOOOOOOOOOOOOOOOO@OOOOOOOOOOOOOOoooo",
"ooooOOOOOOO@OOOOOOOOOOOOOOOOOOOOOOOOOOOOOOOOOOOOOOOOOOOOOOOOoooo",
"ooooOOOOOOOOO@OOOOOOOOOOOOOOO@OOOOOOO@OOOOOOOOOOO@OOOOOOOOOOoooo",
"ooooOOOOOOOOOOOOOOOOOOOOOOOOOOOOOOOOOOOOOOOOOOOOOOOOOOOOOOOOoooo",
"ooooOOOOOOO@@@@OOOOOOOOOOOOOOOOOOOOOOOOOOO@@OOOOOOOOOOOOOOOOoooo",
"ooooOOOOOOOOOOO..................................&&&&OOOOOOOoooo",
"ooooOOOOOOOOOOO..................................&&&&OOOOOOOoooo",
"ooooOOOOOOOOOOO....$$$$$$$....$$$$$$$$...$$$$$$$$&&&&OOOOOOOoooo",
"ooooOOOOOOOOOOO....$$$$$$$....$$$$$$$$...$$$$$$$$&&&&OOOOOOOoooo",
"ooooO@@@OOOOOOO....$$$$$$$....$$$$$$$$...$$$$$$$$&&&&OOO&&&&oooo",
"oooo@O@@OOOOOOO....$$$$$$$....$$$$$$$$...$$$$$$$$&&&&OOO&&&&oooo",
"ooooOOOOOOOOOOO....$$$$$$$....$$$$$$$$...$$$$$$$$&&&&OOO....oooo",
"ooooOOOOOOOOOOO....$$$$$$$....$$$$$$$$...$$$$$$$$&&&&OOO....oooo",
"ooooOOOOOOOOOOO....$$$$$$$....$$$$$$$$...$$$$$$$$&&&&OOO....oooo",
"ooooOOOOOOOOOOO....$$$$$$$....$$$$$$$$...$$$$$$$$&&&&OOO....oooo",
"ooooOOOOOOOOOOO....$$$$$$$....$$$$$$$$...$$$$$$$$&&&&OOO....oooo",
"ooooOOOOOOOOOOO....$$$$$$$....$$$$$$$$...$$$$$$$$&&&&OOO....oooo",
"ooooOOOOOOOOOOO....$$$$$$$....$$$$$$$$...$$$$$$$$&&&&OOO....oooo",
"ooooOOOOOOOOOOO....$$$$$$$....$$$$$$$$...$$$$$$$$&&&&OOO....oooo",
"ooooOOOOOOOO@OO....$$$$$$$....$$$$$$$$...$$$$$$$$&&&&OOOOOOOoooo",
"ooooOOOOOOOOOOO....$$$$$$$....$$$$$$$$...$$$$$$$$&&&&OOOOOOOoooo",
"ooooOOOO@OOOOOO....$$$$$$$....$$$$$$$$...$$$$$$$$&&&&OOOOOOOoooo",
"ooooOOOOOOOOOOO....&&&&&&&&&&&&&&&&&&&&&&&&&&&&&&&&&&OOOOOOOoooo",
"ooooOOOOOOOOOOO....&&&&&&&&&&&&&&&&&&&&&&&&&&&&&&&&&&OOOOOOOoooo",
"ooooO@OOOOOOOOOOOOOOOOOOOOOOOOO@O@OOOOOOOOOOOOOOOOOOOOOOOOOOoooo",
"ooooOOOO@OOOOOOOOOOOOOOOOOOOOO@O@@OOOO@OOOOOOOOOOOOOOOOOOOOOoooo",
"ooooOOOOOOOOOOOOOOOOOOO@@@OOOOOOOOOOOOOOOOOOOOOOOOOOOOOO@@O@oooo",
"ooooOOOOOOOOO@OOOOOOOOOO@@OOOOOOOOOOOO@O@OOOOOOOOOOOOOOOO@OOoooo",
"ooooOOOOO@OOOOOOOOOOOOOOOOOOOO@OOO@OOOOOOOOOOOOOOOOOOOOOOOOOoooo",
"ooooOOOOOOOOOOOOOOOOOOOOOOOOOOOOOOOOOOO@OOOOOOOOOOOOOOOOOOOOoooo",
"ooooOOOOOOO@OOOOOOOOOOOOOOOOOOOOOOOOOOOOOOOOOO@@@OOOOOOOOOOOoooo",
"ooooOOOOOOOOOOOOOOOOOOOOOOOOOOOOOOOOOOOOOOOOO@@@OOOOOOOOOOOOoooo",
"ooooOOOOOOOOOOOOOOOOOOOOOOOOOOOOOOOOOOOOOOOOOOOOOOOOOOOOOOOOoooo",
"ooooOOOOOOOOOOOOOOOOOOOOOOOOOOOOOOOOOOOOOOOOOOOOOOOOOOOOOOOOoooo",
"ooooOOOOOOOOOOO..................................&&&&OOOOOOOoooo",
"ooooOOOOOOOOOOO..................................&&&&OOOOOOOoooo",
"ooooOOOOOOOOOOO....$$$$$$$....$$$$$$$$...$$$$$$$$&&&&OOOOOOOoooo",
"ooooOOOOOOOOOOO....$$$$$$$....$$$$$$$$...$$$$$$$$&&&&OOO&&&&oooo",
"ooooOOOOOO@OOOO....$$$$$$$....$$$$$$$$...$$$$$$$$&&&&OOO&&&&oooo",
"ooooOOOOOOOOOOO....$$$$$$$....$$$$$$$$...$$$$$$$$&&&&OOO....oooo",
"ooooOOOOOOOOOOO....$$$$$$$....$$$$$$$$...$$$$$$$$&&&&OOO....oooo",
"ooooOOOOOOOOOOO....$$$$$$$....$$$$$$$$...$$$$$$$$&&&&OOO....oooo",
"ooooOOOOOOOOOOO....$$$$$$$....$$$$$$$$...$$$$$$$$&&&&OOO....oooo",
"ooooOOOOOOOOOOO....$$$$$$$....$$$$$$$$...$$$$$$$$&&&&OOO....oooo",
"ooooO@OOOOOOOOO....$$$$$$$....$$$$$$$$...$$$$$$$$&&&&OOO....oooo",
"ooooOOOOOOOOOOO....$$$$$$$....$$$$$$$$...$$$$$$$$&&&&OOO....oooo",
"ooooOOOOOOOOOOO....$$$$$$$....$$$$$$$$...$$$$$$$$&&&&OOO....oooo",
"oooo@@@@OOOOOOO....$$$$$$$....$$$$$$$$...$$$$$$$$&&&&OOOOOO@oooo",
"ooooO@@@OOOOOOO....$$$$$$$....$$$$$$$$...$$$$$$$$&&&&OOOOOOOoooo",
"oooo@@O@OOOOOOO....$$$$$$$....$$$$$$$$...$$$$$$$$&&&&OOOOOOOoooo",
"oooo@@@@OOOOOOO....$$$$$$$....$$$$$$$$...$$$$$$$$&&&&OOOOOOOoooo",
"ooooOOOOOOOOOOO....&&&&&&&&&&&&&&&&&&&&&&&&&&&&&&&&&&OOOOOOOoooo",
"ooooOOOOOO@OOOOOOOO@O@@OOOOOOOOOOOOOOOOOOOOOOOOOOOOOOOOOOOOOoooo",
"oooo@OOOOO@OOOOOOOO@@@@OOOOOOOO@OOOOOOOOOOOO@OOOOOOOOOOO@OOOoooo",
"ooooOOOOOOOOOOO@O@OOOOOOOOOOOOOOOOOOOO@@@OOOOOOOOOOOOOOOOOOOoooo",
"ooooOOOOOOOOOOO@OOOOO@OOOOOOOOOOOOOOOO@@@@OOOOOOOOOOOOOOOOOOoooo",
"ooooOOOOOOOO@@@OOOOOO@OOOOOO@OOOOOOOOOOOOOOOOO@OOOOOOOOOOOOOoooo",
"ooooOOO@OOOOO@OOO@OOOOOOOOOOO@OOOOOOOOOOOOOOOOOOOOOOOOOOOOOOoooo",
"oooooooooooooooooooooooooooooooooooooooooooooooooooooooooooooooo",
"oooooooooooooooooooooooooooooooooooooooooooooooooooooooooooooooo"
};
