/* XPM */
static char *_8f3f1826deb45fada3a59bea906109eeeJnnb7fPwAMeUed_1[] = {
/* columns rows colors chars-per-pixel */
"64 64 9 1 ",
"  c #4E7A36",
". c #4F7A36",
"X c #4F7B36",
"o c #589036",
"O c #589136",
"+ c #589037",
"@ c #589137",
"# c #64AA3E",
"$ c #65AA3E",
/* pixels */
"     #########@@@@#######################@@@@@    @@@@@#########",
"     #########@@@@#######################@@@@@    @@@@@#########",
"     #########@@@@#######################@@@@@    @@@@@#########",
"     #########@@@@#######################@@@@@    @@@@@#########",
"     #########@@@@#######################@@@@@    @@@@@#########",
"##############@@@@     @@@@#####################################",
"##############@@@@     @@@@#####################################",
"##############@@@@     @@@@#####################################",
"##############@@@@     @@@@#####################################",
"#####@@@@##############@@@@##########@@@@#######################",
"#####@@@@##############@@@@##########@@@@#######################",
"#####@@@@##############@@@@##########@@@@#######################",
"#####@@@@##############@@@@##########@@@@#######################",
"#####@@@@##############@@@@##########@@@@#######################",
"#####@@@@#####    ###################@@@@#####    #####@@@@#####",
"#####@@@@#####    ###################@@@@#####    #####@@@@#####",
"#####@@@@#####    ###################@@@@#####    #####@@@@#####",
"#####@@@@#####    ###################@@@@#####    #####@@@@#####",
"##############    ############################    #####@@@@#####",
"##############    ############################    #####@@@@#####",
"##############    ############################    #####@@@@#####",
"##############    ############################    #####@@@@#####",
"##############    ############################    #####@@@@#####",
"@@@@@######################@@@@@     @@@@#######################",
"@@@@@######################@@@@@     @@@@#######################",
"@@@@@######################@@@@@     @@@@#######################",
"@@@@@######################@@@@@     @@@@#######################",
"@@@@@#########@@@@#########@@@@@     @@@@#######################",
"@@@@@#########@@@@#########@@@@@     @@@@#######################",
"@@@@@#########@@@@#########@@@@@     @@@@#######################",
"@@@@@#########@@@@#########@@@@@     @@@@#######################",
"@@@@@#########@@@@#########@@@@@     @@@@#######################",
"##############@@@@############################@@@@##############",
"##############@@@@############################@@@@##############",
"##############@@@@############################@@@@##############",
"##############@@@@############################@@@@##############",
"##############@@@@############################@@@@##############",
"###########################@@@@@##############@@@@#########@@@@@",
"###########################@@@@@##############@@@@#########@@@@@",
"###########################@@@@@##############@@@@#########@@@@@",
"###########################@@@@@##############@@@@#########@@@@@",
"#####    #########@@@@@    @@@@@###########################@@@@@",
"#####    #########@@@@@    @@@@@###########################@@@@@",
"#####    #########@@@@@    @@@@@###########################@@@@@",
"#####    #########@@@@@    @@@@@###########################@@@@@",
"#####    #########@@@@@    @@@@@###########################@@@@@",
"#####    #########@@@@@##############@@@@#########     #########",
"#####    #########@@@@@##############@@@@#########     #########",
"#####    #########@@@@@##############@@@@#########     #########",
"#####    #########@@@@@##############@@@@#########     #########",
"#########@@@@@#######################@@@@#########     #########",
"#########@@@@@#######################@@@@#########     #########",
"#########@@@@@#######################@@@@#########     #########",
"#########@@@@@#######################@@@@#########     #########",
"#########@@@@@#######################@@@@#########     #########",
"#########@@@@@#############     ###########################@@@@@",
"#########@@@@@#############     ###########################@@@@@",
"#########@@@@@############# ..  ###########################@@@@@",
"#########@@@@@#############     ###########################@@@@@",
"     ######################     #########@@@@@    @@@@@####@@@@@",
"     ######################     #########@@@@@    @@@@@####@@@@@",
"     ######################     #########@@@@@    @@@@@####@@@@@",
"     ###################### .   #########@@@@@    @@@@@####@@@@@",
"     ###################### .   #########@@@@@    @@@@@####@@@@@"
};
