/* XPM */
static char *f7bd39e88a334400a3301900ae1e47caQFuvdikM3yjdjHV5[] = {
/* columns rows colors chars-per-pixel */
"57 87 255 2 ",
"   c None",
".  c #000C0C",
"X  c #010708",
"o  c #000B14",
"O  c #000D1B",
"+  c #000614",
"@  c #011214",
"#  c #00141C",
"$  c #04191A",
"%  c #131518",
"&  c #000D22",
"*  c #000A2A",
"=  c #001423",
"-  c #011C25",
";  c #00152C",
":  c #001B2B",
">  c #0A1624",
",  c #001B34",
"<  c #001837",
"1  c #19172A",
"2  c #01232C",
"3  c #032626",
"4  c #17282A",
"5  c #012433",
"6  c #00233C",
"7  c #002A3C",
"8  c #072935",
"9  c #1B2934",
"0  c #02343B",
"q  c #123434",
"w  c #252B2B",
"e  c #263334",
"r  c #333836",
"t  c #3B433C",
"y  c #002B44",
"u  c #002C4B",
"i  c #012645",
"p  c #003344",
"a  c #00344C",
"s  c #003B4C",
"d  c #093945",
"f  c #013C53",
"g  c #013D5C",
"h  c #033555",
"j  c #12354A",
"k  c #2A3946",
"l  c #373E48",
"z  c #003B63",
"x  c #014455",
"c  c #01455D",
"v  c #044759",
"b  c #1A4958",
"n  c #0B4E53",
"m  c #384549",
"M  c #394956",
"N  c #38565A",
"B  c #234357",
"V  c #014463",
"C  c #014C65",
"Z  c #014C6B",
"A  c #074C6A",
"S  c #01526C",
"D  c #065868",
"F  c #14576A",
"G  c #015474",
"H  c #025A72",
"J  c #005C7C",
"K  c #04597A",
"L  c #075274",
"P  c #2F5B6E",
"I  c #02637C",
"U  c #066677",
"Y  c #186A79",
"T  c #0D676D",
"R  c #276676",
"E  c #356A79",
"W  c #2B6F76",
"Q  c #455356",
"!  c #4E5150",
"~  c #576268",
"^  c #556B73",
"/  c #666B69",
"(  c #6C7175",
")  c #596062",
"_  c #005B83",
"`  c #006483",
"'  c #056A88",
"]  c #166A85",
"[  c #047288",
"{  c #18758D",
"}  c #036D93",
"|  c #077896",
" . c #197996",
".. c #28778A",
"X. c #397A86",
"o. c #287897",
"O. c #2C6C88",
"+. c #0278A5",
"@. c #4E7B89",
"#. c #6B7B87",
"$. c #1A8499",
"%. c #298588",
"&. c #258499",
"*. c #338F96",
"=. c #0687A9",
"-. c #1588A9",
";. c #0389B4",
":. c #178AB3",
">. c #0397B8",
",. c #1A97BA",
"<. c #1790AB",
"1. c #258AA3",
"2. c #3998A8",
"3. c #2996B8",
"4. c #369ABA",
"5. c #2A8FAD",
"6. c #3BA4B7",
"7. c #47899A",
"8. c #4E919B",
"9. c #469AAA",
"0. c #469AB6",
"q. c #5095AD",
"w. c #6391A6",
"e. c #49A6B5",
"r. c #58A7B4",
"t. c #4BADAB",
"y. c #6EADB6",
"u. c #668A8D",
"i. c #6DC0B6",
"p. c #0D9AC8",
"a. c #279BC6",
"s. c #339FC6",
"d. c #1BA6CA",
"f. c #0AA9D6",
"g. c #1AABD5",
"h. c #18B6DA",
"j. c #0DB0CF",
"k. c #29A7CA",
"l. c #36A9CB",
"z. c #27AAD8",
"x. c #38AED7",
"c. c #26B7D9",
"v. c #35B7D8",
"b. c #2FB2CA",
"n. c #05AEE7",
"m. c #02B3E5",
"M. c #0BB3E5",
"N. c #02B4EC",
"B. c #02BBED",
"V. c #0CBBEB",
"C. c #0BB8E8",
"Z. c #14B5E3",
"A. c #1CB5E2",
"S. c #1BBBE4",
"D. c #12B5EA",
"F. c #13BDEB",
"G. c #1BBCEC",
"H. c #19B5E8",
"J. c #01B4F3",
"K. c #02BCF4",
"L. c #0BBCF4",
"P. c #02B6FC",
"I. c #02BDFD",
"U. c #0ABCFD",
"Y. c #09B5F7",
"T. c #13BBF2",
"R. c #1BBBF3",
"E. c #13BCFB",
"W. c #18B8F6",
"Q. c #10AEEA",
"!. c #24BCE3",
"~. c #2ABAE3",
"^. c #23BCEB",
"/. c #27B6E8",
"(. c #35B8E6",
"). c #24BCF3",
"_. c #29BBF7",
"`. c #37BBF1",
"'. c #47AAC7",
"]. c #50B6CF",
"[. c #6EB7C9",
"{. c #4ABAEC",
"}. c #30C2DF",
"|. c #05C4EC",
" X c #15C2ED",
".X c #1BC1ED",
"XX c #17C1E5",
"oX c #01C2F5",
"OX c #02C3FD",
"+X c #0AC2FD",
"@X c #02C9FE",
"#X c #0AC7F8",
"$X c #13C2F4",
"%X c #1CC2F3",
"&X c #13C2FB",
"*X c #1BC3FC",
"=X c #18CAFC",
"-X c #28C3EB",
";X c #36C5EC",
":X c #24C3F3",
">X c #27C6F8",
",X c #35C7F8",
"<X c #37D2FB",
"1X c #23D0FA",
"2X c #1DC1DD",
"3X c #51C6D5",
"4X c #75CCD3",
"5X c #56C9EA",
"6X c #44CDF7",
"7X c #56CDF5",
"8X c #49D5FC",
"9X c #57D7FD",
"0X c #4ECAE9",
"qX c #64DCFF",
"wX c #67DBFB",
"eX c #7DDCFD",
"rX c #78D9F9",
"tX c #71CCE9",
"yX c #5BE7FF",
"uX c #4FE7FF",
"iX c #77E9EB",
"pX c #6BE4FF",
"aX c #65E4FF",
"sX c #76E5FF",
"dX c #7CE3FF",
"fX c #73E9FF",
"gX c #7BEAFF",
"hX c #76E1F4",
"jX c #7BFCFC",
"kX c #77F6F7",
"lX c #72F0ED",
"zX c #89CCD4",
"xX c #84DCFE",
"cX c #8BDCFD",
"vX c #87D7F9",
"bX c #93DCFD",
"nX c #95DAF6",
"mX c #8ED5E6",
"MX c #A2DBF5",
"NX c #99E6E8",
"BX c #84E3FE",
"VX c #8BE3FE",
"CX c #83EAFE",
"ZX c #8CEAFE",
"AX c #84E1F3",
"SX c #93E3FD",
"DX c #9BE4FE",
"FX c #93EBFD",
"GX c #9BE8FA",
"HX c #84FEFD",
"JX c #8CFBFD",
"KX c #86F8F6",
"LX c #95F7FA",
"PX c #8BF0EB",
"IX c #A4E6FC",
/* pixels */
"                                                                                                                  ",
"                                      M 8 # @ 5 p 0 # + k                                                         ",
"                                  $ O < u J =.d.~.~.,.I , & Q                                                     ",
"                              M + 5 K 3.z.!.#XoXI.L.V.-X3.c o 3                                                   ",
"                            1 * z a.-X XT.K.I.OXP.U.U.&X.X~.| = =                                                 ",
"                          1 * h z.W.K.oXOXI.+XI.I.U.I.P.K.$X!. .& >                                               ",
"                        / o 6 ,.G.+XU.+XI.P.P.I.oX|.oXoX+XP.T.~.] = ~                                             ",
"                        @ @ [ -X.XC.>X<X>XW.W.G.j.j.XXF.W.W.W./.l.x ;                                             ",
"                        X 3 b.h.d.v.gXdXsXqX7X<.i '.wXqXaXqXqX9X7X'.; Q                                           ",
"                      m . X.0X}.[ $.VXrXBXBXBXc f vXVXBXCXeXdXdXpXZXR 9                                           ",
"                      4 3 zXxXSX7.F FXBXBXVX4X; 0.LXeXrXVXxXxXBXfXfX7.N                                           ",
"                      . b GXbXbX[.6 tXZXeXFX7.p ].9XsXgXCXdXxXeX5X].R @.                                          ",
"                      @ 8.ZXcXbXnX6 o.VX9X9XK ' -XF.-X;X;X8X0Xx.'.7., j                                           ",
"                      o r.FXVXDXnXV 6 '.~.A.K } ~.h.>.>.=.} G C u ; & & O > k ~                                   ",
"                      O F { &...R p # Y h.-X| 6  .Z ; , u g C { 9.q.y.y.w.w.P y + @ /                             ",
"                  #.j 7 S J ` ' S 7 # 0 d.}.&.; < < H  .a.x.x.hXZXFXSXDXDXSXGXSX0.p O 3                           ",
"              N , S ,.c.h.XX%X$X:Xg.D - | ]...; Z d.-X X$XV.A.7XCXvXcXcXxXdXpX6X_./.} 5 . t                       ",
"          ~ + f 3./. X|.oX+XOXOXK.=Xv.I p H p g z.$XoXoX@XOXL.,XsXcXcXvXBXqX,XF.U.&XG.:.7 . @                     ",
"        e $ ..x.R.&XOXI.OXOXI.OXOX+XB.!.c # = { ^.oX+XI.K.K.I.W.qXCXeXeXdX9XZ.B.K.U.*X:Xd.f o %                   ",
"      e 3 y.CX9X*XJ.P.OXOXI.I.OXOXP.@X.XY o # ' G.I.OXOXK.+X+XL.9XCXxXeXdX8XC.#XoX+XN.&XF.k.a + e                 ",
"    M 5 zXmXVXCXpX,XU.I.I.I.OXoXI.OXP.c.5 o ; z _.+XP.OXoXoXP.T.9XxXcXcXCXqXG.U.I.+XI.U.+XR.x.s . !               ",
"    O X.FXZXvXxXCXqX>XJ.P.+XoXoXOX+X).-.: d P < p.*XL.K.|.V.$X<XwXxXvXvXAXfX>XL.I.+XI.I.+XN.6XtX5 +               ",
"  m 6 4.wXsXrXVXeXCXqX,XE.U.I.oXoX.X3., 7 e.q.< _ (.H.:X6X9XaXsXdXxXxXxXeXfX,XE.P.P.+XOXK.$X9XVXy.# X             ",
"  + V (.c.yXgXBXxXBXdX9XW.P.+XL.G.a.6 : ].rX0.g 6 3.v.aXgXdXeXxXxXxXxXxXeXpX_.U.U.I.P.@XoXV.qXcXDXw.X 4           ",
"#.& ;.$XT.:XaXdXeXxXdXfX<Xm.#X.X4.y = 8.GXdX0X| = v ].dXBXBXxXxXvXcXcXxXsX8XE.I.OXI.OXOXU.).dXcXnXIXN X !         ",
"l f !.oXI.Y.`.qXgXdXrXgXyX2X-X,.y O @.SXvXdXaXl.0 # *.SXcXxXvXVXcXcXxXdX9X:XN.+XOXOXOXJ.E.9XBXvXcXnXzX2 X         ",
"e F F.OXOXP.W./.8XwXCXdXfX5X&.6 = 7.SXVXAXCXeX5X .; : w.nXFXbXcXcXeXsXyX>XV.U.P.I.I.I.E.8XdXxXbXcXxXVXq.o %       ",
"e 2 c.=X$X>X/.(.(.{.tXeXtX' = a w.IXVXrXBXrXCXwXv.[ = O X.mXDXcXdXpX8X%XL.oXI.+XI.I.Q.8XgXBXvXcXcXdXpX5Xx o /     ",
"t . s U ' I Y H { o.o.K f D r.mXFXxXxXVXcXeXdX9X.XS.H # o d q.5X;XF.L.K.K.+XOXI.OX&X,XfXCXAXAXVXxXgXuXc.5.5 -     ",
"  w X O # = ; : , a U 2.tXnXDXSXvXcXbXvXcXxXeXyXB.#Xc.[ 2 O , C ,.c.:XR._.).D.$X%Xc.3X4X4XzXzXmXnXVX0Xc.3XY O     ",
"      ^ # x <.p.f.~.fXCXCXcXbXnXGXNXMXMXDXVXCX9X&XI.&X^.,.H 6 : = p ] 5.5.4.l.3. .x 2 o O ; # - 2 j F o.3.].p q   ",
"      M ; 4.-X#X+XV.,XfXdXcXDX[.W n s x F r.ZX0XE.P.P.E.G.-Xk.' s ; < , ; ; , ; # @ # 2 u i 7 : = = & * 6 D E #   ",
"      @ c ~.T.K.oXK.E.6XgXFXE 3 W r.4X].Y - D b.$XI.U.U.L.L.&XR./.g.+.J - 0 ..&.F - F './.H.z.z.p.3.y O ; + # @ ! ",
"      # } %XU.+XOXOXP.).7X..$ y.LXKXkXHXLXr.# I F.OXI.U.I.I.OXOXI.E.`.{ Y NXLXJXLX[.y =.=XK.+XU.#XA.] o )   e X t ",
"    / # ,.&XP.+XoXOXI.R.:.: t.KXjXkXHXkXkXLXX., g.+XU.I.+XoXoX@XoXV.,.x iXjXjXkXlXJXe.c Z.oX#X+X#X^.{ o m     )   ",
"    t : z.+XP.I.OXoXOXW._ f KXjXkXjX3XiXKXJXmX5 ;.$XU.I.OXoXoX@XoXC.D *.HXkXHXHXjXHXLXx =.$XoXK.I.S.&.O 9         ",
"    w 5 /.OXI.I.OXOXK.>Xh O.JXkXKXt.# Y KXiXPXU ` F.+XI.OXOXOXOX@XZ.0 i.PXiXF q.JXlXJX*.I ;XV.oXOX:X&.O 9         ",
"    % p ^.OXOXOXK.oX@Xf.i y.JXjXKX*.- W JXKXPX&.S G.+XI.I.I.I.I.+Xp.0 zXLX%.; X.LXlXKX3Xc 5XF.oXK.R.1.O 9         ",
"    $ p ^.OXOXoX@XoXOXZ.7 y.kXkXkXiX6.hXjXkXKX].Z ^.U.I.I.P.U.U.=X>.p NXPXmX7.NXPXLXPXPXc 5X.XoXOXR.$.= 9         ",
"    4 s ^.oX+XoXoXoXoXZ.s 4XKXHXKXJXJXJXHXKXLXtXZ /.L.I.OXI.U.U.U.f.h [.t.*.*.%.%.%.*.2.y ].>XOXOX%X$.O 9         ",
"    k a H.oX+XoXoX@XP.^.S *.1.$.%.*.*.2.9.r.r.e.V z.T.+XI.OXI.oXoXM._ } ' I ` ' Y W D D H x.*XI.OX%X .= 9         ",
"    m a S.OXI.OXoXJ.+XR.| C J ` U U H S C c a y V g.$X+XI.OXoXoXoX=XQ.:X-X!.^.;XfXCXFXFXqX;XE.+XI.:X .O M         ",
"    ~ 6 A.@XI.I.+X+X+XU.Z.h. X XXXG.).R.G.G.A.h.f. XK.I.OXOXoXoXP.I.+XP.oXoXK.&Xh.-X8X;X:XC.U.P.oX^.] O ~         ",
"      ; g.oX+XI.I.+XP.I.K.#XoXOXoXOXI.+XOXoXL.L.#XoXOXOXOXOXI.OX+XP.OXI.OXOXI.I.U.L.D.M.L.L.+XoX#X!.C O           ",
"      O :.L.P.+X+XP.+XOX+XP.I.OXOXI.OXOXOXOXU.U.K.K.@XOXI.I.OXI.I.I.I.+XI.+XOXOX+XP.P.&X&XU.oXoXoXc.f o           ",
"      = ` >XK.I.+XI.OXP.I.I.@XOXOXOXOXOXOXOXP.P.@XoXOXI.I.+X+XI.I.+XP.U.J.I.OXOXP.I.+XP.P.P.OXoX|.z.5 o           ",
"      k a c.$XK.oXoXOX@XI.P.K.oXI.I.I.I.I.I.OXI.I.I.I.+X+XP.I.OXOXOXI.+X+X+XOXOXOXI.OXI.+XP.OX+X$X=.; m           ",
"      ^ : -.F.oXoXoXOXI.OXOXoXK.oXOX+XI.L.U.OXI.I.+XI.OXoX+XI.OXOXK.K.L.T.M.m.OXoXOXOXoXOXOXOXU.!.I O             ",
"        o x !.oXOXOX+XI.I.OX+XK.OXOXP.oXU.P.+XU.OXOXOXOXoXK.I.+XI.I.I.F.k.Z >.|.oXOXI.I.OXoXOX$Xl.2 #             ",
"        r @ -.%XOXOXK.+XI.OXJ.+XOXOXOXoX+XU.P.P.I.OX@XoXoX+X+XP.I.U.1Xg.z ` XX|.K.I.+XI.oXoXoX^.Y # N             ",
"          X a z.+XOXI.OXOXI.OXOXI.I.+XoXK.oX+XOXI.OXOXOXOXOXI.I.K.1X<.a G S.L.+XI.+XP.I.oXoX&Xz.7 .               ",
"          r & G :XK.+XK.OXOXI.OXOXI.K.#X#XK.I.OX+XP.K.K.L.U.E.*XF.} i J S.K.OXOXI.P.I.I.@XB.`._ O Q               ",
"            . - :.>XJ.OXOXI.I.+XP.+XY.<XuX:XC.$X=X=X$X%X-X(.,.} u h +._.U.I.OXOXOXI.OXOXK..X5.* =                 ",
"            / . i k.G.oX+XI.+XI.I.I.R.yXkX8XA.+.+.;.>.=._ g u i J l.).L.I.OXOXOXOXOXI.oX=Xk.y +                   ",
"              m . x z.M.oX@XP.OX+XN.E.8XuX8Xz.z i < 6 a V _ ;.g.!.h.$XoXI.OXI.OXOXOX+XY.(.C . !                   ",
"                e . S (.V.K.@XoXI.+XL.E.W.R./.z.:.,.3.k.b.v.;X<X<X>XD.L.K.OX+XI.oXK.W.`.Z # N                     ",
"                l o O C ~.$XB.@X+XI.OXoXoXB.T.W.:XF.$XXXh.6XfXdXdXsXqX_.L.I.P.+XK.R.(.G # m                       ",
"                l - j ; Z c. XB.U.OXoXoXoX@XU.U.I.I.oXoX>XaXdXvXBXeXBX7XT.K.+XY.>Xk.c O m                         ",
"                q x '.V , h a.).E.I.OX@XI.I.P.I.OXOXoXN.,XfXeXBXdXdXBXqXV.oXV.;X1.5 . /                           ",
"                @ T ~.;XI ; i } ~.G.$X+XP.I.+XOXI.OXOXL.<XgXeXxXrXdXxXdX;XS.z.J ; #                               ",
"                # $.S.m.XX=.f ; s 1.v.C.#XOXI.P.OXI.oXV.:XpXeXxXZXeXFXSXe.U 7 o N                                 ",
"              ( 5 k.%XOXoXS.2.n o # s -.g.Z.>X%XG.D.F.G.~.qXZXDXbXbX[.R 2 # 4                                     ",
"              k g z.B.@XI.^.0.0 $ m O O 5 c ] 1.3.l.l.l.3.0.r.w.E 0 o . 9 (                                       ",
"              O ' ;XL.+X_.,.7 #       ( = O : : : y i u 6 , : = = 5 c E Q                                         ",
"              & <.-X!.a.S = q           ,  .[ H x s p u u g G ' ;.g.).x.v                                         ",
"            ( 5 '.,.J ; 8             ^ V (.!.!.c.k.k.k.z.z.!.:X#XoXI.H.{ E                                       ",
"            ! 9 b * ; #.              6 :.R.T.B.$XF.V.$XE.U.V.V.+XoXoXC.d.C                                       ",
"            w X O (                   a /.J.*XE.K.K.oXoXP.P.N.N.J.J.M.h.h.-.n                                     ",
"            ! !                     0 [ .X#Xp.p.E.U.K.J.J.J.m.m.J.W.;.K A.g.G @.                                  ",
"                                    5 b.Z.f.h G R.K.J.J.J.J.m.m.J.W.| < =.~.l.i                                   ",
"                                  P H c.g.| A K !.B.m.N.J.J.B.B.U.Q.-.H C k.z.-.f                                 ",
"                                  5 ,.h.z.V   Y !.B.N.J.J.N.N.B.N.Z.$.9.O.] /.z.C                                 ",
"                                  7 ~.A. .V   D h.V.m.N.J.N.U.N.K.f.1.E   u a.c.2.b                               ",
"                                  P l.k.g     H c.m.K.K.J.N.n.L.m.!.$.E     c '.9.b                               ",
"                                  8 *.O.M     U h.m.N.n.N.N.N.m.m.A.5.R     P d B                                 ",
"                                    j B       S c.N.N.N.m.m.m.m.N.f.3.O.                                          ",
"                                              S H.J.J.J.M. XM.N.J.Z.,.A                                           ",
"                                              C H.P.J.n.p.} f.M.J.f.,.C                                           ",
"                                              v /.P.K.Z.} i } D.n.H.a.C                                           ",
"                                              v /.P.B.h.A q.' /.n.Q.3.A                                           ",
"                                              x /.J.J.g.c   J z.M.Z.a.A                                           ",
"                                              f A.P.N.d.0   F k.M.D.:.g                                           ",
"                                              g A.J.Y.,.s   @.-.D.D.s.u                                           ",
"                                              x g.n.D.:.b     ] ^.M.3.y                                           ",
"                                              s c.S.g.` u.    v c.h.4.7                                           ",
"                                              0 | b.3.a       y 3.l.] d                                           ",
"                                                x F b @.        g v N                                             "
};
