/* XPM */
static char *_c305dd6eec84e91e07953942715052b7S1Jhe5KTtxdE5fg[] = {
/* columns rows colors chars-per-pixel */
"64 64 13 1 ",
"  c black",
". c gray13",
"X c #4F7A36",
"o c #ED1C24",
"O c #F44336",
"+ c #D9457B",
"@ c #589137",
"# c #65AB3F",
"$ c #C68642",
"% c #F06292",
"& c #1AD1A3",
"* c gray62",
"= c white",
/* pixels */
"XXXXX#########@          #########          @@XXXX@@@@@#########",
"XXXX+++#######@ +++      #########          @@XXXX@@@@@#########",
"XXX++oo+######@+oo++     #########          @@XXXX@@@@@#########",
"XXX+oooo+#####+oooo+     #########          @@XXXX@@@@@#########",
"XXX+oooo+++++++oooo+$$$$$         $$$$$$$$$$     X@@@@@#########",
"###+ooooo+ooo+ooooo+$$$$$         $$$$$$$$$$     ###############",
"###+ooo+o+ooo+o+ooo+$$$$$         $$$$$$$$$$     ###############",
"###+ooo+++ooo+++ooo+$$$$$         $$$$$$$$$$     ###############",
"###+ooooo+ooo+ooooo+$$$$$$$$$$$$$$$$$$$$$$$$$$$$$     ##########",
"###+ooooo+++++ooooo+$$$$$$$$$$$$$$$$$$$$$$$$$$$$$     ##########",
"###+ooo++oo+oo++ooo%$$$$$$$$$$$$$$$$$$$$$$$$$$$$$     ##########",
"####++++oo+++oo++++$$$$$$$$$$$$$$$$$$$$$$$$$$$$$$     ##########",
"#####  ooo+$+ooo$$$$          $$$$$$$$$                    #####",
"##### +ooo+$+ooo+$$$          $$$$$$$$$                    #####",
"#####  ooo+$+ooo$$$$          $$$$$$$$$                    #####",
"#####  +oo+$+oo+$$$$          $$$$$$$$$                    #####",
"#####   ++$$$++$$$$$=====     $$$$$$$$$=====     $$$$$.....     ",
"#####     $$$$$$$$$$=====     $$$$$$$$$=====     $$$$$.....     ",
"#####     $$$$$$$$$$=====     $$$$$$$$$=====     $$$$$.....     ",
"#####     $$$$$$$$$$=====     $$$$$$$$$=====     $$$$$.....     ",
"#####     $$$$$$$$$$$$$$$$$$$$$$$$$$$$$$$$$$$$$$$$$$$$.....     ",
"#####     $$$$$$$$$$$$$$$$$$$$$$$$$$$$$$$$$$$$$$$$$$$$.....     ",
"#####     $$$$$$$$$$$$$$$$$$$$$$$$$$$$$$$$$$$$$$$$$$$$.....     ",
"@@@@@     $$$$$$$$$$$$$$$$$$$$$$$$$$$$$$$$$$$$$$$$$$$$.....     ",
"@@@@@     $$$$$$$$$$     $$$$$$$$$$$$$$$$$$$$$$$$$$$$$.....     ",
"@@@@@     $$$$$$$$$$     $$$$$$$$$$$$$$$$$$$$$$$$$$$$$.....     ",
"@@@@@     $$$$$$$$$$     $$$$$$$$$$$$$$$$$$$$$$$$$$$$$.....     ",
"@@@@@     $$$$$$$$$$     $$$$$$$$$$$$$$$$$$$$$$$$$$$$$.....     ",
"@@@@@     $$$$$$$$$$$$$$$         $$$$$$$$$$$$$$$          #####",
"@@@@@     $$$$$$$$$$$$$$$         $$$$$$$$$$$$$$$          #####",
"@@@@@     $$$$$$$$$$$$$$$         $$$$$$$$$$$$$$$          #####",
"@@@@@     $$$$$$$$$$$$$$$         $$$$$$$$$$$$$$$          #####",
"##########     $$$$$$$$$$$$$$$$$$$$$$$$$$$$$     @##############",
"##########     $$$$$$$$$$$$$$$$$$$$$$$$$$$$$     @##############",
"##########     $$$$$$$$$$$$$$$$$$$$$$$$$$$$$     @##############",
"##########     $$$$$$$$$$$$$$$$$$$$$$$$$$$$$     @##############",
"#####          **********************************     ##########",
"#####          **********************************     #####@@@@@",
"#####          **********************************     #####@@@@@",
"#####          **********************************     #####@@@@@",
"     $$$$$$$$$$**********************************     #####@@@@@",
"     $$$$$$$$$$**********************************     #####@@@@@",
"     $$$$$$$$$$**********************************     #####@@@@@",
"     $$$$$$$$$$**********************************     #####@@@@@",
"     $$$$$$$$$$     *****************************     #####@@@@@",
"     $$$$$$$$$$     *****************************     #####@@@@@",
"     $$$$$$$$$$     *****************************     X#########",
"     $$$$$$$$$$     *****************************     X#########",
"#####          &&&&&&&&&&&&&&&&&&&&&&&&&&&&&&&&&&     X#########",
"#####          &&&&&&&&&&&&&&&&&&&&&&&&&&&&&&&&&&     X#########",
"#####          &&&&&&&&&&&&&&&&&&&&&&&&&&&&&&&&&&     X#########",
"#####          &&&&&&&&&&&&&&&&&&&&&&&&&&&&&&&&&&     X#########",
"#########@     OOOOOOOOOO=====    OOOOO=====     #XXXXX#########",
"#########@     OOOOOOOOOO=====    OOOOO=====     #XXXXX#########",
"#########@     OOOOOOOOOO=====    OOOOO=====     #XXXXX#########",
"#########@     OOOOOOOOOO=====    OOOOO=====     ##########@@@@@",
"#########@     OOOOOOOOOOOOOOO====     OOOOO=====     #####@@@@@",
"#########@     OOOOOOOOOOOOOOO====     OOOOO=====     #####@@@@@",
"#########@     OOOOOOOOOOOOOOO====     OOOOO=====     #####@@@@@",
"XXXXX#####     OOOOOOOOOOOOOOO====     OOOOO=====     @####@@@@@",
"XXXXX#####                                            @####@@@@@",
"XXXXX#####                                            @####@@@@@",
"XXXXX#####                                            @####@@@@@",
"XXXXX#####                                            @####@@@@@"
};
