/* XPM */
static char *a7cfa88578254ef2a602292a97235c33[] = {
/* columns rows colors chars-per-pixel */
"64 64 5 1 ",
"  c #000001",
". c gray43",
"X c gray55",
"o c gray61",
"O c #B4B4B5",
/* pixels */
"                                                                ",
"                                                                ",
"                                                                ",
"                                                                ",
"    oooo...............oooXXXX...........XXXXXXXX.......XXXX    ",
"    oooo...............oooXXXX...........XXXXXXXX.......XXXX    ",
"    oooo...............oooXXXX...........XXXXXXXX.......XXXX    ",
"    oooo...............oooXXXX...........XXXXXXXX.......XXXX    ",
"    oooooooooooXXXXXXXX...oooooooo.......oooooooooooooooXXXX    ",
"    oooooooooooXXXXXXXX...oooooooo.......oooooooooooooooXXXX    ",
"    oooooooooooXXXXXXXX...oooooooo.......oooooooooooooooXXXX    ",
"    ooooOOOOOOOooooXXXX...OOOOoooooooo...ooooOOOOOOOO.......    ",
"    ooooOOOOOOOooooXXXX...OOOOoooooooo...ooooOOOOOOOO.......    ",
"    ooooOOOOOOOooooXXXX...OOOOoooooooo...ooooOOOOOOOO.......    ",
"    ooooOOOOOOOooooXXXX...OOOOoooooooo...ooooOOOOOOOO.......    ",
"    ooooOOOOOOOOOOO...........OOOOoooo.......OOOOXXXX.......    ",
"    ooooOOOOOOOOOOO...........OOOOoooo.......OOOOXXXX.......    ",
"    ooooOOOOOOOOOOO...........OOOOoooo.......OOOOXXXX.......    ",
"    ooooOOOOOOOOOOO...........OOOOoooo.......OOOOXXXX.......    ",
"    ooooooo........OOOOXXX....OOOOXXXX......................    ",
"    ooooooo........OOOOXXX....OOOOXXXX....... ..............    ",
"    ooooooo........OOOOXXX....OOOOXXXX......................    ",
"    ooooooo........OOOOXXX....OOOOXXXX......................    ",
"    oooooooooooooooOOOOOOO...............ooooXXXX....ooo....    ",
"    oooooooooooooooOOOOOOO...............ooooXXXX....ooo....    ",
"    oooooooooooooooOOOOOOO...............ooooXXXX....ooo....    ",
"    .......ooooOOOOOOOOooo............oooooooOOOOOOOOooo....    ",
"    .......ooooOOOOOOOOooo............oooooooOOOOOOOOooo....    ",
"    .......ooooOOOOOOOOooo............oooooooOOOOOOOOooo....    ",
"    .......ooooOOOOOOOOooo............oooooooOOOOOOOOooo....    ",
"    .......oooooooooooooooXXXX...........ooooOOOOOOOOOOOXXXX    ",
"    .......oooooooooooooooXXXX...........ooooOOOOOOOOOOOXXXX    ",
"    .......oooooooooooooooXXXX...........ooooOOOOOOOOOOOXXXX    ",
"    .......oooooooooooooooXXXX...........ooooOOOOOOOOOOOXXXX    ",
"    oooo...........ooooXXX....XXXX.......ooooooooOOOOOOOXXXX    ",
"    oooo...........ooooXXX....XXXX.......ooooooooOOOOOOOXXXX    ",
"    oooo...........ooooXXX....XXXX.......ooooooooOOOOOOOXXXX    ",
"    oooo...........ooooXXX....XXXX.......ooooooooOOOOOOOXXXX    ",
"    ooooooo...............oooooooo...........ooooooooooo....    ",
"    ooooooo...............oooooooo...........ooooooooooo....    ",
"    ooooooo...............oooooooo...........ooooooooooo....    ",
"    OOOOOOOOOOOXXXX....ooooooooooooooo......................    ",
"    OOOOOOOOOOOXXXX....ooooooooooooooo......................    ",
"    OOOOOOOOOOOXXXX....ooooooooooooooo......................    ",
"    OOOOOOOOOOOXXXX....ooooooooooooooo......................    ",
"    OOOOXXX............OOOOOOOooooXXXX...XXXXXXXXXXXX.......    ",
"    OOOOXXX............OOOOOOOooooXXXX...XXXXXXXXXXXX.......    ",
"    OOOOXXX............OOOOOOOooooXXXX...XXXXXXXXXXXX.......    ",
"    OOOOXXX............OOOOOOOooooXXXX...XXXXXXXXXXXX.......    ",
"    XXXX...XXXXXXXXXXXX...OOOOOOOOXXXX...oooooooooooooooXXXX    ",
"    XXXX...XXXXXXXXXXXX...OOOOOOOOXXXX...oooooooooooooooXXXX    ",
"    XXXX...XXXXXXXXXXXX...OOOOOOOOXXXX...oooooooooooooooXXXX    ",
"    XXXX...XXXXXXXXXXXX...OOOOOOOOXXXX...oooooooooooooooXXXX    ",
"    ....oooooooooooXXXXXXX............oooooooOOOOOOOOoooXXXX    ",
"    ....oooooooooooXXXXXXX............oooooooOOOOOOOOoooXXXX    ",
"    ....oooooooooooXXXXXXX............oooooooOOOOOOOOoooXXXX    ",
"    oooooooooooOOOOOOOOoooXXXXXXXX....OOOOOOOOOOOOOOOOOOoooo    ",
"    oooooooooooOOOOOOOOoooXXXXXXXX....OOOOOOOOOOOOOOOOOOoooo    ",
"    oooooooooooOOOOOOOOoooXXXXXXXX....OOOOOOOOOOOOOOOOOOoooo    ",
"    oooooooooooOOOOOOOOoooXXXXXXXX....OOOOOOOOOOOOOOOOOOoooo    ",
"                                                                ",
"                                                                ",
"                                                                ",
"                                                                "
};
